<svg xmlns="http://www.w3.org/2000/svg" width="192" height="192" viewBox="0 0 192 192"> <defs> <linearGradient id="bg-gradient" x1="0%" y1="0%" x2="100%" y2="100%"> <stop offset="0%" style="stop-color:#eceff1;stop-opacity:1" /> <stop offset="100%" style="stop-color:#cfd8dc;stop-opacity:1" /> </linearGradient> <filter id="shadow" x="-20%" y="-20%" width="140%" height="140%"> <feGaussianBlur in="SourceAlpha" stdDeviation="2" /> <feOffset dx="0" dy="2" result="offsetblur" /> <feComponentTransfer> <feFuncA type="linear" slope="0.2" /> </feComponentTransfer> <feMerge> <feMergeNode /> <feMergeNode in="SourceGraphic" /> </feMerge> </filter> </defs> <rect x="16" y="16" width="160" height="160" rx="32" ry="32" fill="url(#bg-gradient)" /> <g filter="url(#shadow)" transform="translate(44, 38)"> <path d="M10,0 L86,0 C91.5228475,-1.01453063e-15 96,4.4771525 96,10 L96,106 C96,111.522847 91.5228475,116 86,116 L10,116 C4.4771525,116 6.76353751e-16,111.522847 0,106 L0,10 C-6.76353751e-16,4.4771525 4.4771525,1.01453063e-15 10,0 Z" fill="#ffffff" /> <rect x="16" y="20" width="64" height="8" rx="4" fill="#90a4ae" /> <rect x="16" y="40" width="48" height="6" rx="3" fill="#b0bec5" /> <rect x="16" y="54" width="64" height="6" rx="3" fill="#b0bec5" /> <rect x="16" y="68" width="56" height="6" rx="3" fill="#b0bec5" /> <rect x="16" y="82" width="40" height="6" rx="3" fill="#b0bec5" /> <path d="M76,0 L96,20 L96,10 C96,4.4771525 91.5228475,0 86,0 L76,0 Z" fill="#cfd8dc" opacity="0.5"/> </g> </svg>
